<?xml version="1.0" encoding="iso-8859-1"?>
<!-- Generator: Adobe Illustrator 19.0.0, SVG Export Plug-In . SVG Version: 6.00 Build 0)  -->
<svg version="1.1" id="Layer_1" xmlns="http://www.w3.org/2000/svg" xmlns:xlink="http://www.w3.org/1999/xlink" x="0px" y="0px"
	 viewBox="0 0 512 512" style="enable-background:new 0 0 512 512;" xml:space="preserve">
<rect x="123.888" y="344.956" style="fill:#25B6D2;" width="264.24" height="92.008"/>
<path style="fill:#FFFFFF;" d="M43.272,79.052h425.464c21.688,0,39.264,17.576,39.264,39.264l0,0v5.472
	c0,21.688-17.584,39.272-39.272,39.272l0,0H43.28C21.592,163.068,4.008,145.484,4,123.796v-0.008v-5.472
	C4,96.628,21.576,79.052,43.272,79.052C43.264,79.052,43.272,79.052,43.272,79.052z"/>
<path style="fill:#AAC1CE;" d="M468.728,83.052c19.464,0.024,35.248,15.8,35.272,35.264v5.472
	c-0.024,19.472-15.8,35.248-35.272,35.272H43.272C23.8,159.036,8.024,143.252,8,123.788v-5.472
	c0.024-19.472,15.8-35.248,35.272-35.272h425.456 M468.728,75.036H43.272C19.376,75.036,0,94.412,0,118.316l0,0v5.472
	c0,23.896,19.376,43.272,43.272,43.272l0,0h425.456c23.896,0,43.272-19.376,43.272-43.272l0,0v-5.472
	C512,94.412,492.624,75.036,468.728,75.036L468.728,75.036z"/>
<path style="fill:#FFFFFF;" d="M43.272,200.196h425.456c21.688,0,39.272,17.584,39.272,39.272l0,0v5.472
	c0,21.688-17.584,39.272-39.272,39.272l0,0H43.28C21.592,284.22,4.008,266.636,4,244.948v-0.008v-5.48
	c0-21.688,17.576-39.264,39.264-39.264C43.264,200.196,43.272,200.196,43.272,200.196z"/>
<path style="fill:#AAC1CE;" d="M468.728,204.196c19.472,0.024,35.248,15.8,35.272,35.272v5.472
	c-0.024,19.472-15.8,35.248-35.272,35.272H43.272C23.8,280.188,8.024,264.404,8,244.94v-5.472
	c0.024-19.472,15.8-35.248,35.272-35.272H468.728 M468.728,196.196H43.272C19.376,196.196,0,215.564,0,239.468l0,0v5.472
	c0,23.896,19.376,43.272,43.272,43.272l0,0h425.456c23.896,0,43.272-19.376,43.272-43.272l0,0v-5.472
	C512,215.564,492.624,196.196,468.728,196.196L468.728,196.196z"/>
<g>
	<circle style="fill:#25B6D2;" cx="53.408" cy="242.236" r="12.272"/>
	<circle style="fill:#25B6D2;" cx="97.88" cy="242.236" r="12.272"/>
	<circle style="fill:#25B6D2;" cx="142.352" cy="242.236" r="12.272"/>
	<circle style="fill:#25B6D2;" cx="186.824" cy="242.236" r="12.272"/>
	<circle style="fill:#25B6D2;" cx="231.296" cy="242.236" r="12.272"/>
	<circle style="fill:#25B6D2;" cx="275.768" cy="242.236" r="12.272"/>
</g>
<g>
	<path style="fill:#FFFFFF;" d="M181.416,402.74c2.44,1.464,5.232,2.248,8.08,2.272c4.6,0,7.296-2.4,7.296-5.952
		c0-3.256-1.864-5.128-6.576-6.928c-5.688-2.024-9.208-4.968-9.208-9.888c0.272-5.536,4.976-9.808,10.52-9.536
		c0.256,0.016,0.512,0.032,0.76,0.064c2.672-0.088,5.328,0.496,7.712,1.712l-1.24,3.672c-2.032-1.096-4.312-1.664-6.624-1.656
		c-4.76,0-6.568,2.84-6.568,5.224c0,3.256,2.128,4.864,6.936,6.728c5.896,2.28,8.896,5.128,8.896,10.248
		c0,5.384-4,10.04-12.208,10.04c-3.112,0.04-6.176-0.728-8.904-2.224L181.416,402.74z"/>
	<path style="fill:#FFFFFF;" d="M228.344,401.388c0,2.592,0.048,4.864,0.2,6.832h-4l-0.256-4.088h-0.104
		c-1.72,2.928-4.88,4.712-8.28,4.656c-3.928,0-8.64-2.168-8.64-10.976v-14.616h4.552v13.872c0,4.8,1.448,8,5.6,8
		c2.656-0.04,5.024-1.68,6.008-4.144c0.28-0.744,0.416-1.536,0.416-2.328v-15.4h4.552L228.344,401.388z"/>
	<path style="fill:#FFFFFF;" d="M235.672,408.228c0.104-1.712,0.208-4.24,0.208-6.472v-30.28h4.504v15.72h0.104
		c1.768-3,5.056-4.776,8.536-4.6c6.2,0.312,10.968,5.592,10.656,11.792c-0.016,0.336-0.048,0.672-0.096,1.008
		c0.84,6.52-3.768,12.488-10.288,13.328c-0.304,0.04-0.608,0.064-0.912,0.08c-3.472,0.192-6.752-1.648-8.384-4.72h-0.16l-0.2,4.144
		H235.672z M240.384,398.188c0.016,0.56,0.08,1.112,0.2,1.656c0.784,3.136,3.6,5.336,6.832,5.328c4.76,0,7.608-3.88,7.608-9.6
		c0-5.024-2.584-9.32-7.456-9.32c-3.32,0.064-6.176,2.368-6.936,5.6c-0.152,0.608-0.232,1.232-0.256,1.856L240.384,398.188z"/>
	<path style="fill:#FFFFFF;" d="M265.312,389.948c0-2.584-0.056-4.704-0.208-6.784h4l0.208,4h0.16
		c1.536-2.904,4.584-4.688,7.864-4.6c3.2-0.032,6.056,1.984,7.088,5.016h0.104c0.696-1.272,1.648-2.376,2.8-3.256
		c1.584-1.216,3.544-1.84,5.536-1.76c3.312,0,8.224,2.168,8.224,10.864v14.752h-4.448v-14.136c0-4.8-1.76-7.712-5.44-7.712
		c-2.488,0.104-4.64,1.768-5.384,4.144c-0.232,0.736-0.36,1.504-0.36,2.272v15.48H281V393.22c0-4-1.76-6.88-5.224-6.88
		c-3.432,0.408-6.016,3.32-6.008,6.776v15.12h-4.448L265.312,389.948z"/>
	<path style="fill:#FFFFFF;" d="M313.528,376.148c-0.08,1.56-1.416,2.752-2.968,2.672c-1.44-0.08-2.592-1.232-2.672-2.672
		c-0.04-1.536,1.168-2.808,2.704-2.848c0.048,0,0.088,0,0.136,0c1.496-0.056,2.744,1.112,2.8,2.6
		C313.536,375.98,313.536,376.06,313.528,376.148z M308.456,408.236v-25.032h4.552v25.056L308.456,408.236z"/>
	<path style="fill:#FFFFFF;" d="M326.04,375.996v7.2h6.52v3.472h-6.52v13.488c0,3.104,0.872,4.856,3.416,4.856
		c0.888,0.016,1.776-0.088,2.64-0.312l0.208,3.424c-1.288,0.448-2.64,0.656-4,0.616c-1.84,0.112-3.64-0.584-4.92-1.912
		c-1.384-1.88-2.008-4.2-1.76-6.52v-13.672h-3.88v-3.44h3.856v-6L326.04,375.996z"/>
</g>
<g>
	<path style="fill:#25B6D2;" d="M41.56,139.084v-34.88h4.92l11.2,17.648c2.328,3.64,4.424,7.424,6.256,11.336L64,133.132
		c-0.416-4.656-0.512-8.896-0.512-14.336v-14.592h4.24v34.88H63.2L52.12,121.38c-2.4-3.744-4.584-7.632-6.52-11.64l-0.16,0.048
		c0.256,4.4,0.368,8.592,0.368,14.4v14.904L41.56,139.084z"/>
	<path style="fill:#25B6D2;" d="M89.312,139.084l-0.36-3.16H88.8c-1.808,2.408-4.656,3.792-7.664,3.728
		c-3.928,0.288-7.352-2.664-7.64-6.6c-0.016-0.2-0.024-0.4-0.016-0.6c0-6.056,5.384-9.368,15.064-9.312v-0.52
		c0.368-2.832-1.632-5.424-4.464-5.792c-0.408-0.056-0.824-0.056-1.232-0.008c-2.304,0.008-4.56,0.656-6.52,1.864l-1.032-3
		c2.48-1.496,5.328-2.264,8.224-2.224c7.664,0,9.52,5.224,9.52,10.24v9.376c-0.032,2.008,0.104,4.016,0.416,6L89.312,139.084z
		 M88.64,126.284c-4.968-0.112-10.608,0.8-10.608,5.64c-0.2,2.2,1.424,4.144,3.624,4.344c0.224,0.016,0.448,0.024,0.672,0
		c2.712,0.072,5.16-1.624,6.056-4.184c0.16-0.472,0.248-0.96,0.256-1.456L88.64,126.284z"/>
	<path style="fill:#25B6D2;" d="M100.376,120.804c0-2.584-0.056-4.712-0.208-6.776h4l0.208,4h0.16
		c1.536-2.904,4.584-4.688,7.864-4.6c3.2-0.032,6.056,1.984,7.088,5.016h0.104c0.696-1.272,1.648-2.376,2.8-3.256
		c1.584-1.216,3.544-1.84,5.536-1.76c3.312,0,8.224,2.168,8.224,10.864v14.752h-4.448v-14.136c0-4.8-1.76-7.712-5.44-7.712
		c-2.488,0.104-4.64,1.768-5.384,4.144c-0.232,0.736-0.36,1.504-0.36,2.272v15.48h-4.456v-15.016c0-4-1.76-6.88-5.224-6.88
		c-2.664,0.152-4.928,1.984-5.64,4.552c-0.256,0.712-0.384,1.464-0.368,2.224v15.112h-4.448L100.376,120.804z"/>
	<path style="fill:#25B6D2;" d="M146.048,127.388c-0.4,4.4,2.848,8.288,7.248,8.688c0.448,0.04,0.896,0.04,1.344,0.008
		c2.376,0.072,4.744-0.368,6.936-1.296l0.8,3.264c-2.64,1.096-5.472,1.616-8.328,1.544c-6.408,0.408-11.936-4.464-12.344-10.88
		c-0.04-0.584-0.032-1.168,0.024-1.744c-0.752-6.672,4.048-12.68,10.72-13.432c0.344-0.04,0.688-0.064,1.032-0.072
		c5.864,0.112,10.528,4.952,10.416,10.808c-0.008,0.328-0.024,0.664-0.064,0.992c-0.008,0.712-0.064,1.424-0.16,2.128
		L146.048,127.388z M159.4,124.124c0.512-3.544-1.952-6.824-5.496-7.336c-0.272-0.04-0.544-0.064-0.816-0.064
		c-3.888,0.288-6.92,3.496-6.984,7.4H159.4z"/>
</g>
<polygon style="fill:#45C7D8;" points="123.888,403.164 123.888,344.932 182.12,344.932 "/>
<g>
</g>
<g>
</g>
<g>
</g>
<g>
</g>
<g>
</g>
<g>
</g>
<g>
</g>
<g>
</g>
<g>
</g>
<g>
</g>
<g>
</g>
<g>
</g>
<g>
</g>
<g>
</g>
<g>
</g>
</svg>
